<mxfile host="app.diagrams.net" modified="2024-06-04T17:24:09.883Z" agent="Mozilla/5.0 (Macintosh; Intel Mac OS X 10.15; rv:126.0) Gecko/20100101 Firefox/126.0" etag="MBj11tJE6N_xuh8PWpP3" version="24.4.4" type="github">
  <diagram name="Page-1" id="197159a0-c6a4-9194-75a8-e4174976684c">
    <mxGraphModel dx="1597" dy="1048" grid="1" gridSize="10" guides="1" tooltips="1" connect="1" arrows="1" fold="1" page="1" pageScale="1.5" pageWidth="1169" pageHeight="826" background="none" math="0" shadow="0">
      <root>
        <mxCell id="0" style=";html=1;" />
        <mxCell id="1" style=";html=1;" parent="0" />
        <mxCell id="bUOJ_VPWDClfyEDVL0uz-1" value="&lt;div&gt;RedHat OpenShift Container Platform&lt;/div&gt;" style="rounded=0;whiteSpace=wrap;html=1;labelPosition=center;verticalLabelPosition=top;align=center;verticalAlign=bottom;fillColor=none;strokeColor=#b85450;" parent="1" vertex="1">
          <mxGeometry x="800" y="520" width="670" height="360" as="geometry" />
        </mxCell>
        <mxCell id="bUOJ_VPWDClfyEDVL0uz-2" value="" style="image;aspect=fixed;html=1;points=[];align=center;fontSize=12;image=img/lib/azure2/containers/Azure_Red_Hat_OpenShift.svg;" parent="1" vertex="1">
          <mxGeometry x="1390" y="530" width="68" height="68" as="geometry" />
        </mxCell>
        <mxCell id="bUOJ_VPWDClfyEDVL0uz-3" value="keycloak-pod" style="aspect=fixed;sketch=0;html=1;dashed=0;whitespace=wrap;verticalLabelPosition=bottom;verticalAlign=top;fillColor=#2875E2;strokeColor=#ffffff;points=[[0.005,0.63,0],[0.1,0.2,0],[0.9,0.2,0],[0.5,0,0],[0.995,0.63,0],[0.72,0.99,0],[0.5,1,0],[0.28,0.99,0]];shape=mxgraph.kubernetes.icon2;kubernetesLabel=1;prIcon=pod" parent="1" vertex="1">
          <mxGeometry x="1053.54" y="560" width="72.92" height="70" as="geometry" />
        </mxCell>
        <mxCell id="bUOJ_VPWDClfyEDVL0uz-12" value="&lt;div&gt;app-svc&lt;/div&gt;" style="aspect=fixed;sketch=0;html=1;dashed=0;whitespace=wrap;verticalLabelPosition=bottom;verticalAlign=top;fillColor=#2875E2;strokeColor=#ffffff;points=[[0.005,0.63,0],[0.1,0.2,0],[0.9,0.2,0],[0.5,0,0],[0.995,0.63,0],[0.72,0.99,0],[0.5,1,0],[0.28,0.99,0]];shape=mxgraph.kubernetes.icon2;kubernetesLabel=1;prIcon=svc" parent="1" vertex="1">
          <mxGeometry x="900" y="753.2" width="50" height="48" as="geometry" />
        </mxCell>
        <mxCell id="bUOJ_VPWDClfyEDVL0uz-15" value="OpenShift Route&lt;br&gt;app" style="image;aspect=fixed;html=1;points=[];align=center;fontSize=12;image=img/lib/azure2/containers/Azure_Red_Hat_OpenShift.svg;" parent="1" vertex="1">
          <mxGeometry x="770" y="750" width="50" height="50" as="geometry" />
        </mxCell>
        <mxCell id="bUOJ_VPWDClfyEDVL0uz-17" value="Browser" style="strokeWidth=1;shadow=0;dashed=0;align=center;html=1;shape=mxgraph.mockup.containers.browserWindow;rSize=0;strokeColor=#666666;strokeColor2=#008cff;strokeColor3=#c4c4c4;mainText=,;recursiveResize=0;labelPosition=center;verticalLabelPosition=top;verticalAlign=bottom;" parent="1" vertex="1">
          <mxGeometry x="180" y="775" width="300" height="203.8" as="geometry" />
        </mxCell>
        <mxCell id="bUOJ_VPWDClfyEDVL0uz-18" value="CLD" style="strokeWidth=1;shadow=0;dashed=0;align=center;html=1;shape=mxgraph.mockup.containers.anchor;fontSize=17;fontColor=#666666;align=left;whiteSpace=wrap;" parent="bUOJ_VPWDClfyEDVL0uz-17" vertex="1">
          <mxGeometry x="60" y="12" width="100" height="26" as="geometry" />
        </mxCell>
        <mxCell id="bUOJ_VPWDClfyEDVL0uz-19" value="https://notre.app.li" style="strokeWidth=1;shadow=0;dashed=0;align=center;html=1;shape=mxgraph.mockup.containers.anchor;rSize=0;fontSize=17;fontColor=#666666;align=left;" parent="bUOJ_VPWDClfyEDVL0uz-17" vertex="1">
          <mxGeometry x="130" y="60" width="150" height="26" as="geometry" />
        </mxCell>
        <mxCell id="bUOJ_VPWDClfyEDVL0uz-23" value="https&lt;br&gt;443" style="endArrow=none;html=1;rounded=0;exitX=-0.04;exitY=0.476;exitDx=0;exitDy=0;exitPerimeter=0;" parent="1" source="bUOJ_VPWDClfyEDVL0uz-15" target="bUOJ_VPWDClfyEDVL0uz-17" edge="1">
          <mxGeometry width="50" height="50" relative="1" as="geometry">
            <mxPoint x="850" y="810" as="sourcePoint" />
            <mxPoint x="900" y="760" as="targetPoint" />
          </mxGeometry>
        </mxCell>
        <mxCell id="bUOJ_VPWDClfyEDVL0uz-24" value="http&lt;br&gt;8080" style="endArrow=none;html=1;rounded=0;exitX=0.005;exitY=0.63;exitDx=0;exitDy=0;exitPerimeter=0;entryX=1.04;entryY=0.676;entryDx=0;entryDy=0;entryPerimeter=0;" parent="1" source="bUOJ_VPWDClfyEDVL0uz-12" target="bUOJ_VPWDClfyEDVL0uz-15" edge="1">
          <mxGeometry x="-0.0032" width="50" height="50" relative="1" as="geometry">
            <mxPoint x="688" y="1049" as="sourcePoint" />
            <mxPoint x="330" y="960" as="targetPoint" />
            <mxPoint as="offset" />
          </mxGeometry>
        </mxCell>
        <mxCell id="bUOJ_VPWDClfyEDVL0uz-29" value="http&lt;br&gt;8080" style="endArrow=none;html=1;rounded=0;exitX=0.005;exitY=0.63;exitDx=0;exitDy=0;exitPerimeter=0;entryX=0.995;entryY=0.63;entryDx=0;entryDy=0;entryPerimeter=0;" parent="1" source="bUOJ_VPWDClfyEDVL0uz-4" target="bUOJ_VPWDClfyEDVL0uz-12" edge="1">
          <mxGeometry width="50" height="50" relative="1" as="geometry">
            <mxPoint x="998" y="850" as="sourcePoint" />
            <mxPoint x="920" y="852" as="targetPoint" />
          </mxGeometry>
        </mxCell>
        <mxCell id="bUOJ_VPWDClfyEDVL0uz-33" value="&lt;div&gt;&lt;br&gt;&lt;/div&gt;" style="aspect=fixed;sketch=0;html=1;dashed=0;whitespace=wrap;verticalLabelPosition=bottom;verticalAlign=top;fillColor=#2875E2;strokeColor=#ffffff;points=[[0.005,0.63,0],[0.1,0.2,0],[0.9,0.2,0],[0.5,0,0],[0.995,0.63,0],[0.72,0.99,0],[0.5,1,0],[0.28,0.99,0]];shape=mxgraph.kubernetes.icon2;kubernetesLabel=1;prIcon=pod" parent="1" vertex="1">
          <mxGeometry x="1000" y="720" width="72.91" height="70" as="geometry" />
        </mxCell>
        <mxCell id="bUOJ_VPWDClfyEDVL0uz-4" value="&lt;div&gt;app-pod(s)&lt;/div&gt;" style="aspect=fixed;sketch=0;html=1;dashed=0;whitespace=wrap;verticalLabelPosition=bottom;verticalAlign=top;fillColor=#2875E2;strokeColor=#ffffff;points=[[0.005,0.63,0],[0.1,0.2,0],[0.9,0.2,0],[0.5,0,0],[0.995,0.63,0],[0.72,0.99,0],[0.5,1,0],[0.28,0.99,0]];shape=mxgraph.kubernetes.icon2;kubernetesLabel=1;prIcon=pod" parent="1" vertex="1">
          <mxGeometry x="1010" y="740" width="72.91" height="70" as="geometry" />
        </mxCell>
        <mxCell id="qOma7RcPHYg1zwben9A7-1" value="OpenShift Route&lt;br&gt;&lt;div&gt;keycloak&lt;/div&gt;" style="image;aspect=fixed;html=1;points=[];align=center;fontSize=12;image=img/lib/azure2/containers/Azure_Red_Hat_OpenShift.svg;" parent="1" vertex="1">
          <mxGeometry x="770" y="590" width="50" height="50" as="geometry" />
        </mxCell>
        <mxCell id="qOma7RcPHYg1zwben9A7-3" value="https&lt;br&gt;443" style="endArrow=none;html=1;rounded=0;exitX=-0.02;exitY=0.68;exitDx=0;exitDy=0;exitPerimeter=0;" parent="1" source="qOma7RcPHYg1zwben9A7-1" target="bUOJ_VPWDClfyEDVL0uz-17" edge="1">
          <mxGeometry width="50" height="50" relative="1" as="geometry">
            <mxPoint x="778" y="784" as="sourcePoint" />
            <mxPoint x="490" y="852" as="targetPoint" />
          </mxGeometry>
        </mxCell>
        <mxCell id="qOma7RcPHYg1zwben9A7-4" value="keycloak-svc" style="aspect=fixed;sketch=0;html=1;dashed=0;whitespace=wrap;verticalLabelPosition=bottom;verticalAlign=top;fillColor=#2875E2;strokeColor=#ffffff;points=[[0.005,0.63,0],[0.1,0.2,0],[0.9,0.2,0],[0.5,0,0],[0.995,0.63,0],[0.72,0.99,0],[0.5,1,0],[0.28,0.99,0]];shape=mxgraph.kubernetes.icon2;kubernetesLabel=1;prIcon=svc" parent="1" vertex="1">
          <mxGeometry x="920" y="582" width="50" height="48" as="geometry" />
        </mxCell>
        <mxCell id="qOma7RcPHYg1zwben9A7-5" value="http&lt;br&gt;8080" style="endArrow=none;html=1;rounded=0;exitX=0.005;exitY=0.63;exitDx=0;exitDy=0;exitPerimeter=0;entryX=0.995;entryY=0.63;entryDx=0;entryDy=0;entryPerimeter=0;" parent="1" source="bUOJ_VPWDClfyEDVL0uz-3" target="qOma7RcPHYg1zwben9A7-4" edge="1">
          <mxGeometry width="50" height="50" relative="1" as="geometry">
            <mxPoint x="1040" y="606.5" as="sourcePoint" />
            <mxPoint x="980" y="605.5" as="targetPoint" />
          </mxGeometry>
        </mxCell>
        <mxCell id="qOma7RcPHYg1zwben9A7-6" value="http&lt;br&gt;8080" style="endArrow=none;html=1;rounded=0;exitX=0.005;exitY=0.63;exitDx=0;exitDy=0;exitPerimeter=0;entryX=1.1;entryY=0.56;entryDx=0;entryDy=0;entryPerimeter=0;" parent="1" source="qOma7RcPHYg1zwben9A7-4" target="qOma7RcPHYg1zwben9A7-1" edge="1">
          <mxGeometry x="-0.0032" width="50" height="50" relative="1" as="geometry">
            <mxPoint x="910" y="793" as="sourcePoint" />
            <mxPoint x="832" y="794" as="targetPoint" />
            <mxPoint as="offset" />
          </mxGeometry>
        </mxCell>
        <mxCell id="qOma7RcPHYg1zwben9A7-7" value="https&lt;br&gt;443" style="endArrow=none;html=1;rounded=0;exitX=0.9;exitY=1.04;exitDx=0;exitDy=0;exitPerimeter=0;entryX=0.1;entryY=0.2;entryDx=0;entryDy=0;entryPerimeter=0;" parent="1" source="qOma7RcPHYg1zwben9A7-1" target="bUOJ_VPWDClfyEDVL0uz-33" edge="1">
          <mxGeometry width="50" height="50" relative="1" as="geometry">
            <mxPoint x="779" y="634" as="sourcePoint" />
            <mxPoint x="490" y="800" as="targetPoint" />
          </mxGeometry>
        </mxCell>
        <mxCell id="J31OWuKhVoPTrz1gxMmf-3" value="" style="shape=image;html=1;verticalAlign=top;verticalLabelPosition=bottom;labelBackgroundColor=#ffffff;imageAspect=0;aspect=fixed;image=https://cdn0.iconfinder.com/data/icons/long-shadow-web-icons/512/nodejs-128.png" parent="1" vertex="1">
          <mxGeometry x="1062.5" y="700" width="55" height="55" as="geometry" />
        </mxCell>
        <mxCell id="J31OWuKhVoPTrz1gxMmf-13" style="edgeStyle=orthogonalEdgeStyle;rounded=0;orthogonalLoop=1;jettySize=auto;html=1;exitX=0.5;exitY=1;exitDx=0;exitDy=0;" parent="1" source="bUOJ_VPWDClfyEDVL0uz-1" target="bUOJ_VPWDClfyEDVL0uz-1" edge="1">
          <mxGeometry relative="1" as="geometry" />
        </mxCell>
        <mxCell id="J31OWuKhVoPTrz1gxMmf-14" value="" style="shape=image;imageAspect=0;aspect=fixed;verticalLabelPosition=bottom;verticalAlign=top;image=https://static-00.iconduck.com/assets.00/keycloak-icon-2048x2048-5ge904so.png;" parent="1" vertex="1">
          <mxGeometry x="1100" y="530" width="60" height="60" as="geometry" />
        </mxCell>
        <mxCell id="J31OWuKhVoPTrz1gxMmf-18" value="&lt;div&gt;postgreSQL-pod&lt;/div&gt;" style="aspect=fixed;sketch=0;html=1;dashed=0;whitespace=wrap;verticalLabelPosition=bottom;verticalAlign=top;fillColor=#2875E2;strokeColor=#ffffff;points=[[0.005,0.63,0],[0.1,0.2,0],[0.9,0.2,0],[0.5,0,0],[0.995,0.63,0],[0.72,0.99,0],[0.5,1,0],[0.28,0.99,0]];shape=mxgraph.kubernetes.icon2;kubernetesLabel=1;prIcon=pod" parent="1" vertex="1">
          <mxGeometry x="1280" y="742.8200000000002" width="71.61" height="68.75" as="geometry" />
        </mxCell>
        <mxCell id="J31OWuKhVoPTrz1gxMmf-19" value="" style="image;aspect=fixed;html=1;points=[];align=center;fontSize=12;image=img/lib/azure2/databases/Azure_Database_PostgreSQL_Server.svg;" parent="1" vertex="1">
          <mxGeometry x="1320" y="720" width="48" height="64" as="geometry" />
        </mxCell>
        <mxCell id="J31OWuKhVoPTrz1gxMmf-21" value="postgresql&lt;span style=&quot;background-color: initial;&quot;&gt;DB-svc&lt;/span&gt;" style="aspect=fixed;sketch=0;html=1;dashed=0;whitespace=wrap;verticalLabelPosition=bottom;verticalAlign=top;fillColor=#2875E2;strokeColor=#ffffff;points=[[0.005,0.63,0],[0.1,0.2,0],[0.9,0.2,0],[0.5,0,0],[0.995,0.63,0],[0.72,0.99,0],[0.5,1,0],[0.28,0.99,0]];shape=mxgraph.kubernetes.icon2;kubernetesLabel=1;prIcon=svc" parent="1" vertex="1">
          <mxGeometry x="1160" y="753.2" width="50" height="48" as="geometry" />
        </mxCell>
        <mxCell id="J31OWuKhVoPTrz1gxMmf-22" value="" style="endArrow=none;html=1;rounded=0;" parent="1" source="J31OWuKhVoPTrz1gxMmf-21" target="bUOJ_VPWDClfyEDVL0uz-4" edge="1">
          <mxGeometry width="50" height="50" relative="1" as="geometry">
            <mxPoint x="1198.45" y="852" as="sourcePoint" />
            <mxPoint x="1071.45" y="850" as="targetPoint" />
          </mxGeometry>
        </mxCell>
        <mxCell id="J31OWuKhVoPTrz1gxMmf-23" value="&lt;div&gt;tcp&lt;/div&gt;5432" style="edgeLabel;html=1;align=center;verticalAlign=middle;resizable=0;points=[];" parent="J31OWuKhVoPTrz1gxMmf-22" vertex="1" connectable="0">
          <mxGeometry x="-0.1178" y="5" relative="1" as="geometry">
            <mxPoint as="offset" />
          </mxGeometry>
        </mxCell>
        <mxCell id="J31OWuKhVoPTrz1gxMmf-24" value="" style="endArrow=none;html=1;rounded=0;exitX=0.047;exitY=0.5;exitDx=0;exitDy=0;exitPerimeter=0;" parent="1" source="J31OWuKhVoPTrz1gxMmf-18" target="J31OWuKhVoPTrz1gxMmf-21" edge="1">
          <mxGeometry width="50" height="50" relative="1" as="geometry">
            <mxPoint x="1240" y="790" as="sourcePoint" />
            <mxPoint x="1236" y="877" as="targetPoint" />
          </mxGeometry>
        </mxCell>
        <mxCell id="J31OWuKhVoPTrz1gxMmf-25" value="&lt;div&gt;tcp&lt;br&gt;5432&lt;br&gt;&lt;/div&gt;" style="edgeLabel;html=1;align=center;verticalAlign=middle;resizable=0;points=[];" parent="J31OWuKhVoPTrz1gxMmf-24" vertex="1" connectable="0">
          <mxGeometry x="-0.1178" y="5" relative="1" as="geometry">
            <mxPoint as="offset" />
          </mxGeometry>
        </mxCell>
        <mxCell id="9aLUhhCUSaN_rVCLrQgb-1" value="" style="aspect=fixed;sketch=0;html=1;dashed=0;whitespace=wrap;verticalLabelPosition=bottom;verticalAlign=top;fillColor=#2875E2;strokeColor=#ffffff;points=[[0.005,0.63,0],[0.1,0.2,0],[0.9,0.2,0],[0.5,0,0],[0.995,0.63,0],[0.72,0.99,0],[0.5,1,0],[0.28,0.99,0]];shape=mxgraph.kubernetes.icon2;kubernetesLabel=1;prIcon=vol" parent="1" vertex="1">
          <mxGeometry x="1340" y="763.5699999999999" width="50" height="48" as="geometry" />
        </mxCell>
        <mxCell id="iT-uOPiIT8ObfZAUqGAS-1" value="&lt;div&gt;keycloak-db-pod&lt;/div&gt;" style="aspect=fixed;sketch=0;html=1;dashed=0;whitespace=wrap;verticalLabelPosition=bottom;verticalAlign=top;fillColor=#2875E2;strokeColor=#ffffff;points=[[0.005,0.63,0],[0.1,0.2,0],[0.9,0.2,0],[0.5,0,0],[0.995,0.63,0],[0.72,0.99,0],[0.5,1,0],[0.28,0.99,0]];shape=mxgraph.kubernetes.icon2;kubernetesLabel=1;prIcon=pod" vertex="1" parent="1">
          <mxGeometry x="1280" y="561.2500000000002" width="71.61" height="68.75" as="geometry" />
        </mxCell>
        <mxCell id="iT-uOPiIT8ObfZAUqGAS-2" value="" style="image;aspect=fixed;html=1;points=[];align=center;fontSize=12;image=img/lib/azure2/databases/Azure_Database_PostgreSQL_Server.svg;" vertex="1" parent="1">
          <mxGeometry x="1320" y="538.4300000000001" width="48" height="64" as="geometry" />
        </mxCell>
        <mxCell id="iT-uOPiIT8ObfZAUqGAS-3" value="" style="aspect=fixed;sketch=0;html=1;dashed=0;whitespace=wrap;verticalLabelPosition=bottom;verticalAlign=top;fillColor=#2875E2;strokeColor=#ffffff;points=[[0.005,0.63,0],[0.1,0.2,0],[0.9,0.2,0],[0.5,0,0],[0.995,0.63,0],[0.72,0.99,0],[0.5,1,0],[0.28,0.99,0]];shape=mxgraph.kubernetes.icon2;kubernetesLabel=1;prIcon=vol" vertex="1" parent="1">
          <mxGeometry x="1340" y="582" width="50" height="48" as="geometry" />
        </mxCell>
        <mxCell id="iT-uOPiIT8ObfZAUqGAS-5" value="&lt;div&gt;keycloak-db-svc&lt;/div&gt;&lt;div&gt;&lt;br&gt;&lt;/div&gt;" style="aspect=fixed;sketch=0;html=1;dashed=0;whitespace=wrap;verticalLabelPosition=bottom;verticalAlign=top;fillColor=#2875E2;strokeColor=#ffffff;points=[[0.005,0.63,0],[0.1,0.2,0],[0.9,0.2,0],[0.5,0,0],[0.995,0.63,0],[0.72,0.99,0],[0.5,1,0],[0.28,0.99,0]];shape=mxgraph.kubernetes.icon2;kubernetesLabel=1;prIcon=svc" vertex="1" parent="1">
          <mxGeometry x="1180" y="582" width="50" height="48" as="geometry" />
        </mxCell>
        <mxCell id="iT-uOPiIT8ObfZAUqGAS-6" value="" style="endArrow=none;html=1;rounded=0;exitX=0.047;exitY=0.5;exitDx=0;exitDy=0;exitPerimeter=0;" edge="1" parent="1">
          <mxGeometry width="50" height="50" relative="1" as="geometry">
            <mxPoint x="1643" y="970" as="sourcePoint" />
            <mxPoint x="1570" y="970" as="targetPoint" />
          </mxGeometry>
        </mxCell>
        <mxCell id="iT-uOPiIT8ObfZAUqGAS-7" value="&lt;div&gt;tcp&lt;br&gt;5432&lt;br&gt;&lt;/div&gt;" style="edgeLabel;html=1;align=center;verticalAlign=middle;resizable=0;points=[];" vertex="1" connectable="0" parent="iT-uOPiIT8ObfZAUqGAS-6">
          <mxGeometry x="-0.1178" y="5" relative="1" as="geometry">
            <mxPoint as="offset" />
          </mxGeometry>
        </mxCell>
        <mxCell id="iT-uOPiIT8ObfZAUqGAS-8" value="" style="endArrow=none;html=1;rounded=0;entryX=0.995;entryY=0.63;entryDx=0;entryDy=0;entryPerimeter=0;" edge="1" parent="1" source="iT-uOPiIT8ObfZAUqGAS-5" target="bUOJ_VPWDClfyEDVL0uz-3">
          <mxGeometry width="50" height="50" relative="1" as="geometry">
            <mxPoint x="1194.5" y="671" as="sourcePoint" />
            <mxPoint x="1117.5" y="670" as="targetPoint" />
          </mxGeometry>
        </mxCell>
        <mxCell id="iT-uOPiIT8ObfZAUqGAS-9" value="&lt;div&gt;tcp&lt;/div&gt;5432" style="edgeLabel;html=1;align=center;verticalAlign=middle;resizable=0;points=[];" vertex="1" connectable="0" parent="iT-uOPiIT8ObfZAUqGAS-8">
          <mxGeometry x="-0.1178" y="5" relative="1" as="geometry">
            <mxPoint as="offset" />
          </mxGeometry>
        </mxCell>
        <mxCell id="iT-uOPiIT8ObfZAUqGAS-10" value="" style="endArrow=none;html=1;rounded=0;" edge="1" parent="1">
          <mxGeometry width="50" height="50" relative="1" as="geometry">
            <mxPoint x="1284" y="606.5" as="sourcePoint" />
            <mxPoint x="1230" y="607" as="targetPoint" />
          </mxGeometry>
        </mxCell>
        <mxCell id="iT-uOPiIT8ObfZAUqGAS-11" value="&lt;div&gt;tcp&lt;/div&gt;5432" style="edgeLabel;html=1;align=center;verticalAlign=middle;resizable=0;points=[];" vertex="1" connectable="0" parent="iT-uOPiIT8ObfZAUqGAS-10">
          <mxGeometry x="-0.1178" y="5" relative="1" as="geometry">
            <mxPoint as="offset" />
          </mxGeometry>
        </mxCell>
      </root>
    </mxGraphModel>
  </diagram>
</mxfile>
